# ProBuilder 5.0.7
# https://unity3d.com/unity/features/worldbuilding/probuilder
# 25/06/2024 19:02:31

mtllib ./mshGateSegment.mtl
o mshGateSegment

g objGateL
v 0 0 0.125
v 0 0 -0.125
v 0 0.375 0.125
v 0 0.375 -0.125
v 0.25 0.125 -0.125
v 0.25 0.125 0.125
v 0.25 0.375 -0.125
v 0.25 0.375 0.125
v 0.125 0 -0.125
v 0.125 0 0.125

vt 0.125 0
vt -0.125 0
vt 0.125 0.375
vt -0.125 0.375
vt 0.375 -0.1875
vt -0.375 -0.1875
vt 0.375 0.1875
vt -0.375 0.1875
vt 0.5 0.375
vt 0.5 -0.375
vt -0.375 -0.375
vt -0.5 -0.375
vt -0.375 0.375
vt -0.5 0.375
vt 0.265165 -0.125
vt 0.265165 0.125
vt 0.08838835 -0.125
vt 0.08838835 0.125
vt 0 0.375
vt 0 0
vt -0.25 0.125
vt -0.25 0.375
vt 0.25 0.125
vt 0.25 0.375

vn -1 0 0
vn 1 0 0
vn 0 1 0
vn 0 -1 0
vn 0.7071068 -0.7071068 0
vn 0 0 -1
vn 0 0 1

usemtl matPlatformBody
f 5/21/6 4/19/6 7/22/6
f 2/20/6 4/19/6 5/21/6
f 9/2/6 2/20/6 5/21/6
f 6/23/7 1/20/7 10/1/7
f 6/23/7 3/19/7 1/20/7
f 8/24/7 3/19/7 6/23/7
f 4/4/1 2/2/1 1/1/1
f 1/1/1 3/3/1 4/4/1
f 8/8/2 6/6/2 5/5/2
f 5/5/2 7/7/2 8/8/2
f 4/10/3 3/9/3 8/8/3
f 8/8/3 7/7/3 4/10/3
f 1/14/4 2/12/4 9/11/4
f 9/11/4 10/13/4 1/14/4
f 9/17/5 5/15/5 6/16/5
f 6/16/5 10/18/5 9/17/5

