# ProBuilder 5.0.7
# https://unity3d.com/unity/features/worldbuilding/probuilder
# 25/06/2024 18:54:12

mtllib ./mshGateLine.mtl
o mshGateLine

g objGateI
v -1.639128E-07 -0.3124995 0.375
v -1.639127E-07 -0.3124985 -0.375
v -1.2666E-07 -4.172325E-07 0.375
v -1.266599E-07 5.364418E-07 -0.375
v 0.2499999 -0.1875005 -0.375
v 0.25 -0.187501 0.375
v 0.2499999 5.066395E-07 -0.375
v 0.2499999 -4.470348E-07 0.375
v 0.1249999 -0.3124986 -0.375
v 0.1249999 -0.3124995 0.375

vt 0.375 -0.3124995
vt -0.375 -0.3124985
vt 0.375 -4.172325E-07
vt -0.375 5.364418E-07
vt 0.375 -0.1875
vt -0.375 -0.1875
vt 0.375 0.1875
vt -0.375 0.1875
vt 0.5 0.375
vt 0.5 -0.375
vt -0.375 -0.375
vt -0.5 -0.375
vt -0.375 0.375
vt -0.5 0.375
vt 0.04419615 -0.3749998
vt 0.04419586 0.3750002
vt -0.1325792 -0.3749998
vt -0.1325799 0.3750002
vt 1.266599E-07 5.364418E-07
vt 1.639127E-07 -0.3124985
vt -0.1249999 -0.3124986
vt -0.2499999 -0.1875005
vt -0.2499999 5.066395E-07
vt 0.25 -0.187501
vt 0.1249999 -0.3124995
vt 0.2499999 -4.470348E-07

vn -1 1.192093E-07 -1.445607E-20
vn 1 -1.589449E-07 -1.192094E-07
vn 1.192093E-07 1 1.271566E-06
vn -2.384185E-07 -1 -1.271566E-06
vn 0.7071013 -0.7071123 -5.61961E-07
vn 0 0 -1
vn 0 0 1

usemtl matPlatformBody
f 5/22/6 4/19/6 7/23/6
f 2/20/6 4/19/6 5/22/6
f 9/21/6 2/20/6 5/22/6
f 6/24/7 1/20/7 10/25/7
f 6/24/7 3/19/7 1/20/7
f 8/26/7 3/19/7 6/24/7
f 4/4/1 2/2/1 1/1/1
f 1/1/1 3/3/1 4/4/1
f 8/8/2 6/6/2 5/5/2
f 5/5/2 7/7/2 8/8/2
f 4/10/3 3/9/3 8/8/3
f 8/8/3 7/7/3 4/10/3
f 1/14/4 2/12/4 9/11/4
f 9/11/4 10/13/4 1/14/4
f 9/17/5 5/15/5 6/16/5
f 6/16/5 10/18/5 9/17/5

