# ProBuilder 5.0.7
# https://unity3d.com/unity/features/worldbuilding/probuilder
# 25/06/2024 19:15:56

mtllib ./mshGateY.mtl
o mshGateY

g Cube
v 0.25 -0.25 0.375
v 0 -0.375 0.375
v 0.25 0.25 0.375
v 0 0.375 0.375
v 0 -0.375 -0.375
v 0 0.375 -0.375
v 0.25 -0.25 -0.375
v 0.25 0.25 -0.375

vt 0.25 -0.25
vt 0 -0.375
vt 0.25 0.25
vt 0 0.375
vt 0.375 -0.375
vt -0.375 -0.375
vt 0.375 0.375
vt -0.375 0.375
vt -0.25 -0.25
vt -0.25 0.25
vt 0.375 -0.25
vt -0.375 -0.25
vt 0.375 0.25
vt -0.375 0.25
vt -0.1118034 0.375
vt 0.1677051 0.375
vt -0.1118034 -0.375
vt 0.1677051 -0.375
vt 0.1118034 -0.375
vt -0.1677051 -0.375
vt 0.1118034 0.375
vt -0.1677051 0.375

vn 0 0 1
vn -1 0 0
vn 0 0 -1
vn 1 0 0
vn 0.4472136 0.8944272 0
vn 0.4472136 -0.8944272 0

usemtl GridBox_Default
f 3/3/1 4/4/1 2/2/1 1/1/1
f 4/7/2 6/8/2 5/6/2 2/5/2
f 6/4/3 8/10/3 7/9/3 5/2/3
f 8/13/4 3/14/4 1/12/4 7/11/4
f 8/17/5 6/18/5 4/16/5 3/15/5
f 1/21/6 2/22/6 5/20/6 7/19/6

