# ProBuilder 5.0.7
# https://unity3d.com/unity/features/worldbuilding/probuilder
# 25/06/2024 0:00:26

mtllib ./mshKnot.mtl
o mshKnot

g Torus
v -0.1875 0 0
v -0.1600418 0.03125 0.03125
v -0.09375 0.04419327 0.04418945
v -0.02745819 0.03125 0.03125
v 0 0 0
v -0.02745819 -0.03125 -0.03125
v -0.09375 -0.04419327 -0.04418945
v -0.1600418 -0.03125 -0.03125
v -0.154007 0.08838654 -0.08839417
v -0.1302261 0.1099319 -0.04742432
v -0.07281494 0.09943771 -0.01104736
v -0.01540375 0.06305695 -0.0005493164
v 0.008377075 0.02209854 -0.02209473
v -0.01540375 0.0005569458 -0.06304932
v -0.07281494 0.01104736 -0.09944153
v -0.1302261 0.04743195 -0.1099243
v -0.0625 0.1530914 -0.1530914
v -0.04876709 0.1675262 -0.1050262
v -0.015625 0.1398773 -0.05148315
v 0.01751709 0.08633804 -0.02383423
v 0.03125 0.03827286 -0.03826904
v 0.01751709 0.02383804 -0.08633423
v -0.015625 0.05149078 -0.1398773
v -0.04876709 0.1050262 -0.1675262
v 0.0625 0.1767769 -0.1767731
v 0.0625 0.1886101 -0.1261139
v 0.0625 0.1546783 -0.06628418
v 0.0625 0.09486008 -0.03236389
v 0.0625 0.04419327 -0.04418945
v 0.0625 0.03236008 -0.09486389
v 0.0625 0.06629181 -0.1546783
v 0.0625 0.1261101 -0.1886139
v 0.1875 0.1530914 -0.1530914
v 0.1737671 0.1675262 -0.1050262
v 0.140625 0.1398773 -0.05148315
v 0.1074829 0.08633804 -0.02383423
v 0.09375 0.03827286 -0.03826904
v 0.1074829 0.02383804 -0.08633423
v 0.140625 0.05149078 -0.1398773
v 0.1737671 0.1050262 -0.1675262
v 0.279007 0.08838654 -0.08839417
v 0.2552261 0.1099319 -0.04742432
v 0.1978149 0.09943771 -0.01104736
v 0.1404037 0.06305695 -0.0005493164
v 0.1166229 0.02209854 -0.02209473
v 0.1404037 0.0005569458 -0.06304932
v 0.1978149 0.01104736 -0.09944153
v 0.2552261 0.04743195 -0.1099243
v 0.3125 0 0
v 0.2850418 0.03125 0.03125
v 0.21875 0.04419327 0.04418945
v 0.1524582 0.03125 0.03125
v 0.125 0 0
v 0.1524582 -0.03125 -0.03125
v 0.21875 -0.04419327 -0.04418945
v 0.2850418 -0.03125 -0.03125
v 0.279007 -0.08838654 0.08839417
v 0.2552261 -0.04743195 0.1099243
v 0.1978149 -0.01104736 0.09944153
v 0.1404037 -0.0005569458 0.06304932
v 0.1166229 -0.02209854 0.02209473
v 0.1404037 -0.06305695 0.0005493164
v 0.1978149 -0.09943771 0.01104736
v 0.2552261 -0.1099319 0.04742432
v 0.1875 -0.1530914 0.1530914
v 0.1737671 -0.1050262 0.1675262
v 0.140625 -0.05149078 0.1398773
v 0.1074829 -0.02383804 0.08633423
v 0.09375 -0.03827286 0.03826904
v 0.1074829 -0.08633804 0.02383423
v 0.140625 -0.1398773 0.05148315
v 0.1737671 -0.1675262 0.1050262
v 0.0625 -0.1767769 0.1767731
v 0.0625 -0.1261101 0.1886139
v 0.0625 -0.06629181 0.1546783
v 0.0625 -0.03236008 0.09486389
v 0.0625 -0.04419327 0.04418945
v 0.0625 -0.09486008 0.03236389
v 0.0625 -0.1546783 0.06628418
v 0.0625 -0.1886101 0.1261139
v -0.0625 -0.1530914 0.1530914
v -0.04876709 -0.1050262 0.1675262
v -0.015625 -0.05149078 0.1398773
v 0.01751709 -0.02383804 0.08633423
v 0.03125 -0.03827286 0.03826904
v 0.01751709 -0.08633804 0.02383423
v -0.015625 -0.1398773 0.05148315
v -0.04876709 -0.1675262 0.1050262
v -0.154007 -0.08838654 0.08839417
v -0.1302261 -0.04743195 0.1099243
v -0.07281494 -0.01104736 0.09944153
v -0.01540375 -0.0005569458 0.06304932
v 0.008377075 -0.02209854 0.02209473
v -0.01540375 -0.06305695 0.0005493164
v -0.07281494 -0.09943771 0.01104736
v -0.1302261 -0.1099319 0.04742432
v -0.3125 0 0
v -0.2850418 0.03125 -0.03125
v -0.21875 0.04419327 -0.04418945
v -0.1524582 0.03125 -0.03125
v -0.125 0 0
v -0.1524582 -0.03125 0.03125
v -0.21875 -0.04419327 0.04418945
v -0.2850418 -0.03125 0.03125
v -0.279007 -0.08838654 -0.08839417
v -0.2552261 -0.04743195 -0.1099243
v -0.1978149 -0.01104736 -0.09944153
v -0.1404037 -0.0005569458 -0.06304932
v -0.1166229 -0.02209854 -0.02209473
v -0.1404037 -0.06305695 -0.0005493164
v -0.1978149 -0.09943771 -0.01104736
v -0.2552261 -0.1099319 -0.04742432
v -0.1875 -0.1530914 -0.1530914
v -0.1737671 -0.1050262 -0.1675262
v -0.140625 -0.05149078 -0.1398773
v -0.1074829 -0.02383804 -0.08633423
v -0.09375 -0.03827286 -0.03826904
v -0.1074829 -0.08633804 -0.02383423
v -0.140625 -0.1398773 -0.05148315
v -0.1737671 -0.1675262 -0.1050262
v -0.0625 -0.1767769 -0.1767731
v -0.0625 -0.1261101 -0.1886139
v -0.0625 -0.06629181 -0.1546783
v -0.0625 -0.03236008 -0.09486389
v -0.0625 -0.04419327 -0.04418945
v -0.0625 -0.09486008 -0.03236389
v -0.0625 -0.1546783 -0.06628418
v -0.0625 -0.1886101 -0.1261139
v 0.0625 -0.1530914 -0.1530914
v 0.04876709 -0.1050262 -0.1675262
v 0.015625 -0.05149078 -0.1398773
v -0.01751709 -0.02383804 -0.08633423
v -0.03125 -0.03827286 -0.03826904
v -0.01751709 -0.08633804 -0.02383423
v 0.015625 -0.1398773 -0.05148315
v 0.04876709 -0.1675262 -0.1050262
v 0.154007 -0.08838654 -0.08839417
v 0.1302261 -0.04743195 -0.1099243
v 0.07281494 -0.01104736 -0.09944153
v 0.01540375 -0.0005569458 -0.06304932
v -0.008377075 -0.02209854 -0.02209473
v 0.01540375 -0.06305695 -0.0005493164
v 0.07281494 -0.09943771 -0.01104736
v 0.1302261 -0.1099319 -0.04742432
v 0.1875 0 0
v 0.1600418 0.03125 -0.03125
v 0.09375 0.04419327 -0.04418945
v 0.02745819 0.03125 -0.03125
v 0.02745819 -0.03125 0.03125
v 0.09375 -0.04419327 0.04418945
v 0.1600418 -0.03125 0.03125
v 0.154007 0.08838654 0.08839417
v 0.1302261 0.1099319 0.04742432
v 0.07281494 0.09943771 0.01104736
v 0.01540375 0.06305695 0.0005493164
v -0.008377075 0.02209854 0.02209473
v 0.01540375 0.0005569458 0.06304932
v 0.07281494 0.01104736 0.09944153
v 0.1302261 0.04743195 0.1099243
v 0.0625 0.1530914 0.1530914
v 0.04876709 0.1675262 0.1050262
v 0.015625 0.1398773 0.05148315
v -0.01751709 0.08633804 0.02383423
v -0.03125 0.03827286 0.03826904
v -0.01751709 0.02383804 0.08633423
v 0.015625 0.05149078 0.1398773
v 0.04876709 0.1050262 0.1675262
v -0.0625 0.1767769 0.1767731
v -0.0625 0.1886101 0.1261139
v -0.0625 0.1546783 0.06628418
v -0.0625 0.09486008 0.03236389
v -0.0625 0.04419327 0.04418945
v -0.0625 0.03236008 0.09486389
v -0.0625 0.06629181 0.1546783
v -0.0625 0.1261101 0.1886139
v -0.1875 0.1530914 0.1530914
v -0.1737671 0.1675262 0.1050262
v -0.140625 0.1398773 0.05148315
v -0.1074829 0.08633804 0.02383423
v -0.09375 0.03827286 0.03826904
v -0.1074829 0.02383804 0.08633423
v -0.140625 0.05149078 0.1398773
v -0.1737671 0.1050262 0.1675262
v -0.279007 0.08838654 0.08839417
v -0.2552261 0.1099319 0.04742432
v -0.1978149 0.09943771 0.01104736
v -0.1404037 0.06305695 0.0005493164
v -0.1166229 0.02209854 0.02209473
v -0.1404037 0.0005569458 0.06304932
v -0.1978149 0.01104736 0.09944153
v -0.2552261 0.04743195 0.1099243

vt 0 0
vt 0 0.06629126
vt 0.2225413 0
vt 0.15625 0
vt 0.08995874 0
vt 0 -0.06629126
vt -0.08995873 0
vt -0.15625 0
vt -0.2225412 0
vt -0.125 0
vt -0.1112706 0.06629126
vt 0.1927264 -0.1112706
vt 0.1353165 -0.078125
vt 0.07790655 -0.04497937
vt 0.04497937 0.06629126
vt 0.03125 -8.195885E-09
vt 0.04497937 -0.06629126
vt -0.07790654 -0.04497937
vt -0.1353165 -0.078125
vt -0.1927264 -0.1112706
vt -0.1112706 -0.06629127
vt 0.2165063 0
vt 0.1927264 0.06629126
vt -0.07790655 0.06629126
vt -0.05412658 -8.195885E-09
vt -0.07790654 -0.06629126
vt 0.1927264 -0.06629127
vt 0.125 0
vt 0.1112706 0.06629126
vt 0.1112706 -0.1927264
vt 0.07812499 -0.1353165
vt 0.04497936 -0.07790656
vt -0.04497936 0.06629126
vt -0.03124999 -8.195885E-09
vt -0.04497936 -0.06629126
vt -0.04497936 -0.07790656
vt -0.07812499 -0.1353165
vt -0.1112706 -0.1927264
vt 0.1112706 -0.06629127
vt -2.878638E-09 -0.2225412
vt -6.829905E-09 -0.15625
vt -1.078117E-08 -0.08995875
vt -0.2165063 0
vt -0.1927264 0.06629126
vt 0.07790655 0.06629126
vt 0.05412659 -8.195885E-09
vt 0.07790655 -0.06629126
vt -0.1927264 -0.06629127
vt 0.125 0
vt -0.125 0
vt -0.1927264 0.1112706
vt -0.1353165 0.07812499
vt -0.07790653 0.04497937
vt 0.07790653 0.04497937
vt 0.1353165 0.07812499
vt 0.1927264 0.1112706
vt -0.1112706 0.1927264
vt -0.07812499 0.1353165
vt -0.04497936 0.07790656
vt 0.04497935 0.07790655
vt 0.07812499 0.1353165
vt 0.1112706 0.1927264
vt 5.814529E-09 0.2225412
vt 1.863262E-09 0.15625
vt -2.088004E-09 0.08995875

vn -1 0 0
vn -0.5953495 0.5681235 0.5681502
vn 1.184043E-05 0.7071065 0.7071071
vn 0.5953135 0.5681017 0.5682096
vn 1 0 0
vn 0.5953135 -0.5681017 -0.5682096
vn 1.184043E-05 -0.7071065 -0.7071071
vn -0.5953495 -0.5681235 -0.5681502
vn -0.8660257 0.3534921 -0.3536139
vn -0.5155736 0.7786281 0.3576622
vn 0.5155714 0.3576218 0.7786481
vn 0.8660138 -0.3535705 0.3535646
vn 0.5155969 -0.7786256 -0.3576339
vn -0.5155775 -0.3576511 -0.7786306
vn -0.4999868 0.6123832 -0.6123725
vn -0.297664 0.9327185 0.2035494
vn 0.297763 0.2035687 0.9326826
vn 0.5000257 -0.6123442 0.6123796
vn 0.2976726 -0.932713 -0.2035622
vn -0.2976783 -0.2036062 -0.9327015
vn 4.713717E-06 0.7071364 -0.7070771
vn -3.816263E-06 0.9891172 0.1471297
vn 6.902382E-06 0.1471874 0.9891086
vn -1.988189E-05 -0.7070787 0.7071348
vn 1.88745E-05 -0.9891073 -0.147196
vn 7.531448E-06 -0.14715 -0.9891142
vn 0.4999909 0.612361 -0.6123914
vn 0.2976726 0.9327188 0.2035355
vn -0.2977351 0.2036241 0.9326795
vn -0.5000172 -0.6123774 0.6123534
vn -0.2976621 -0.9327122 -0.2035807
vn 0.297695 -0.2035508 -0.9327083
vn 0.8660163 0.353507 -0.3536221
vn 0.5155824 0.7786287 0.357648
vn -0.5155692 0.3576508 0.7786362
vn -0.8660061 -0.3536004 0.3535537
vn -0.5156372 -0.7785928 -0.3576472
vn 0.5155727 -0.3576587 -0.7786303
vn -0.8660061 0.3536004 -0.3535538
vn 0.499991 -0.612361 0.6123914
vn -0.5000172 0.6123775 -0.6123534
vn -0.4999868 -0.6123832 0.6123725
vn 0.5000258 0.6123442 -0.6123796
vn -0.8660257 -0.3534921 0.3536139
vn -0.5953124 0.5681369 -0.5681757
vn 0.5953466 0.568094 -0.5681828
vn 0.5953466 -0.568094 0.5681828
vn -0.5953124 -0.5681369 0.5681757
vn -0.8660163 -0.353507 -0.353622
vn -0.5155727 0.3576587 -0.7786303
vn 0.5156372 0.7785928 -0.3576471
vn 0.8660061 0.3536004 0.3535538
vn 0.5155692 -0.3576508 0.7786362
vn -0.5155824 -0.7786287 0.357648
vn -0.499991 -0.612361 -0.6123914
vn -0.297695 0.2035508 -0.9327083
vn 0.2976621 0.9327122 -0.2035807
vn 0.5000172 0.6123775 0.6123534
vn 0.2977351 -0.2036241 0.9326795
vn -0.2976726 -0.9327188 0.2035355
vn -7.537533E-06 0.14715 -0.9891142
vn -1.887856E-05 0.9891073 -0.1471959
vn -6.902381E-06 -0.1471874 0.9891086
vn 3.820318E-06 -0.9891172 0.1471297
vn 0.4999868 -0.6123832 -0.6123725
vn 0.2976783 0.2036062 -0.9327015
vn -0.2976726 0.932713 -0.2035622
vn -0.5000258 0.6123442 0.6123796
vn -0.297763 -0.2035687 0.9326827
vn 0.297664 -0.9327185 0.2035494
vn 0.8660257 -0.3534921 -0.3536139
vn 0.5155775 0.3576511 -0.7786306
vn -0.5155969 0.7786256 -0.3576339
vn -0.8660138 0.3535705 0.3535646
vn -0.5155714 -0.3576218 0.778648
vn 0.5155736 -0.7786281 0.3576622
vn 0.8660257 0.3534921 0.3536139
vn 0.4999868 0.6123832 0.6123725
vn -0.5000257 -0.6123442 -0.6123796
vn -0.4999909 0.612361 0.6123914
vn 0.5000172 -0.6123774 -0.6123534
vn 0.8660061 -0.3536004 -0.3535537

usemtl matCbleDark
f 2/2/2 10/11/10 9/10/9 1/1/1
f 3/4/3 11/13/3 10/12/10 2/3/2
f 4/5/4 12/14/11 11/13/3 3/4/3
f 5/1/5 13/16/12 12/15/11 4/2/4
f 6/6/6 14/17/13 13/16/12 5/1/5
f 7/8/7 15/19/7 14/18/13 6/7/6
f 8/9/8 16/20/14 15/19/7 7/8/7
f 1/1/1 9/10/9 16/21/14 8/6/8
f 10/23/10 18/29/16 17/28/15 9/22/9
f 11/13/3 19/31/3 18/30/16 10/12/10
f 12/14/11 20/32/17 19/31/3 11/13/3
f 13/25/12 21/34/18 20/33/17 12/24/11
f 14/26/13 22/35/19 21/34/18 13/25/12
f 15/19/7 23/37/7 22/36/19 14/18/13
f 16/20/14 24/38/20 23/37/7 15/19/7
f 9/22/9 17/28/15 24/39/20 16/27/14
f 18/29/16 26/2/22 25/1/21 17/28/15
f 19/31/3 27/41/3 26/40/22 18/30/16
f 20/32/17 28/42/23 27/41/3 19/31/3
f 21/34/18 29/1/24 28/2/23 20/33/17
f 22/35/19 30/6/25 29/1/24 21/34/18
f 23/37/7 31/41/7 30/42/25 22/36/19
f 24/38/20 32/40/26 31/41/7 23/37/7
f 17/28/15 25/1/21 32/6/26 24/39/20
f 26/2/22 34/11/28 33/10/27 25/1/21
f 27/41/3 35/37/3 34/38/28 26/40/22
f 28/42/23 36/36/29 35/37/3 27/41/3
f 29/1/24 37/16/30 36/15/29 28/2/23
f 30/6/25 38/17/31 37/16/30 29/1/24
f 31/41/7 39/31/7 38/32/31 30/42/25
f 32/40/26 40/30/32 39/31/7 31/41/7
f 25/1/21 33/10/27 40/21/32 32/6/26
f 34/11/28 42/44/34 41/43/33 33/10/27
f 35/37/3 43/19/3 42/20/34 34/38/28
f 36/36/29 44/18/35 43/19/3 35/37/3
f 37/16/30 45/46/36 44/45/35 36/15/29
f 38/17/31 46/47/37 45/46/36 37/16/30
f 39/31/7 47/13/7 46/14/37 38/32/31
f 40/30/32 48/12/38 47/13/7 39/31/7
f 33/10/27 41/43/33 48/48/38 40/21/32
f 42/29/34 50/2/4 49/1/5 41/49/33
f 43/19/3 51/8/3 50/9/4 42/20/34
f 44/18/35 52/7/2 51/8/3 43/19/3
f 45/34/36 53/1/1 52/2/2 44/33/35
f 46/35/37 54/6/8 53/1/1 45/34/36
f 47/13/7 55/4/7 54/5/8 46/14/37
f 48/12/38 56/3/6 55/4/7 47/13/7
f 41/49/33 49/1/5 56/6/6 48/39/38
f 50/2/4 58/11/11 57/50/12 49/1/5
f 51/8/3 59/52/3 58/51/11 50/9/4
f 52/7/2 60/53/10 59/52/3 51/8/3
f 53/1/1 61/16/39 60/15/10 52/2/2
f 54/6/8 62/17/14 61/16/39 53/1/1
f 55/4/7 63/55/7 62/54/14 54/5/8
f 56/3/6 64/56/13 63/55/7 55/4/7
f 49/1/5 57/50/12 64/21/13 56/6/6
f 58/23/11 66/29/17 65/28/40 57/22/12
f 59/52/3 67/58/3 66/57/17 58/51/11
f 60/53/10 68/59/16 67/58/3 59/52/3
f 61/25/39 69/34/41 68/33/16 60/24/10
f 62/26/14 70/35/20 69/34/41 61/25/39
f 63/55/7 71/61/7 70/60/20 62/54/14
f 64/56/13 72/62/19 71/61/7 63/55/7
f 57/22/12 65/28/40 72/39/19 64/27/13
f 66/29/17 74/2/23 73/1/24 65/28/40
f 67/58/3 75/64/3 74/63/23 66/57/17
f 68/59/16 76/65/22 75/64/3 67/58/3
f 69/34/41 77/1/21 76/2/22 68/33/16
f 70/35/20 78/6/26 77/1/21 69/34/41
f 71/61/7 79/64/7 78/65/26 70/60/20
f 72/62/19 80/63/25 79/64/7 71/61/7
f 65/28/40 73/1/24 80/6/25 72/39/19
f 74/2/23 82/11/29 81/50/42 73/1/24
f 75/64/3 83/61/3 82/62/29 74/63/23
f 76/65/22 84/60/28 83/61/3 75/64/3
f 77/1/21 85/16/43 84/15/28 76/2/22
f 78/6/26 86/17/32 85/16/43 77/1/21
f 79/64/7 87/58/7 86/59/32 78/65/26
f 80/63/25 88/57/31 87/58/7 79/64/7
f 73/1/24 81/50/42 88/21/31 80/6/25
f 82/11/29 90/44/35 89/43/44 81/50/42
f 83/61/3 91/55/3 90/56/35 82/62/29
f 84/60/28 92/54/34 91/55/3 83/61/3
f 85/16/43 93/46/33 92/45/34 84/15/28
f 86/17/32 94/47/38 93/46/33 85/16/43
f 87/58/7 95/52/7 94/53/38 86/59/32
f 88/57/31 96/51/37 95/52/7 87/58/7
f 81/50/42 89/43/44 96/48/37 88/21/31
f 90/29/35 2/2/2 1/1/1 89/49/44
f 91/55/3 3/4/3 2/3/2 90/56/35
f 92/54/34 4/5/4 3/4/3 91/55/3
f 93/34/33 5/1/5 4/2/4 92/33/34
f 94/35/38 6/6/6 5/1/5 93/34/33
f 95/52/7 7/8/7 6/7/6 94/53/38
f 96/51/37 8/9/8 7/8/7 95/52/7
f 89/49/44 1/1/1 8/6/8 96/39/37
f 98/2/45 106/11/50 105/10/49 97/1/1
f 99/4/21 107/13/21 106/12/50 98/3/45
f 100/5/46 108/14/51 107/13/21 99/4/21
f 101/1/5 109/16/52 108/15/51 100/2/46
f 102/6/47 110/17/53 109/16/52 101/1/5
f 103/8/24 111/19/24 110/18/53 102/7/47
f 104/9/48 112/20/54 111/19/24 103/8/24
f 97/1/1 105/10/49 112/21/54 104/6/48
f 106/23/50 114/29/56 113/28/55 105/22/49
f 107/13/21 115/31/21 114/30/56 106/12/50
f 108/14/51 116/32/57 115/31/21 107/13/21
f 109/25/52 117/34/58 116/33/57 108/24/51
f 110/26/53 118/35/59 117/34/58 109/25/52
f 111/19/24 119/37/24 118/36/59 110/18/53
f 112/20/54 120/38/60 119/37/24 111/19/24
f 105/22/49 113/28/55 120/39/60 112/27/54
f 114/29/56 122/2/61 121/1/7 113/28/55
f 115/31/21 123/41/21 122/40/61 114/30/56
f 116/32/57 124/42/62 123/41/21 115/31/21
f 117/34/58 125/1/3 124/2/62 116/33/57
f 118/35/59 126/6/63 125/1/3 117/34/58
f 119/37/24 127/41/24 126/42/63 118/36/59
f 120/38/60 128/40/64 127/41/24 119/37/24
f 113/28/55 121/1/7 128/6/64 120/39/60
f 122/2/61 130/11/66 129/10/65 121/1/7
f 123/41/21 131/37/21 130/38/66 122/40/61
f 124/42/62 132/36/67 131/37/21 123/41/21
f 125/1/3 133/16/68 132/15/67 124/2/62
f 126/6/63 134/17/69 133/16/68 125/1/3
f 127/41/24 135/31/24 134/32/69 126/42/63
f 128/40/64 136/30/70 135/31/24 127/41/24
f 121/1/7 129/10/65 136/21/70 128/6/64
f 130/11/66 138/44/72 137/43/71 129/10/65
f 131/37/21 139/19/21 138/20/72 130/38/66
f 132/36/67 140/18/73 139/19/21 131/37/21
f 133/16/68 141/46/74 140/45/73 132/15/67
f 134/17/69 142/47/75 141/46/74 133/16/68
f 135/31/24 143/13/24 142/14/75 134/32/69
f 136/30/70 144/12/76 143/13/24 135/31/24
f 129/10/65 137/43/71 144/48/76 136/21/70
f 138/29/72 146/2/46 145/1/5 137/49/71
f 139/19/21 147/8/21 146/9/46 138/20/72
f 140/18/73 148/7/45 147/8/21 139/19/21
f 141/34/74 5/1/1 148/2/45 140/33/73
f 142/35/75 149/6/48 5/1/1 141/34/74
f 143/13/24 150/4/24 149/5/48 142/14/75
f 144/12/76 151/3/47 150/4/24 143/13/24
f 137/49/71 145/1/5 151/6/47 144/39/76
f 146/2/46 153/11/51 152/50/77 145/1/5
f 147/8/21 154/52/21 153/51/51 146/9/46
f 148/7/45 155/53/50 154/52/21 147/8/21
f 5/1/1 156/16/49 155/15/50 148/2/45
f 149/6/48 157/17/54 156/16/49 5/1/1
f 150/4/24 158/55/24 157/54/54 149/5/48
f 151/3/47 159/56/53 158/55/24 150/4/24
f 145/1/5 152/50/77 159/21/53 151/6/47
f 153/23/51 161/29/57 160/28/78 152/22/77
f 154/52/21 162/58/21 161/57/57 153/51/51
f 155/53/50 163/59/56 162/58/21 154/52/21
f 156/25/49 164/34/79 163/33/56 155/24/50
f 157/26/54 165/35/60 164/34/79 156/25/49
f 158/55/24 166/61/24 165/60/60 157/54/54
f 159/56/53 167/62/59 166/61/24 158/55/24
f 152/22/77 160/28/78 167/39/59 159/27/53
f 161/29/57 169/2/62 168/1/3 160/28/78
f 162/58/21 170/64/21 169/63/62 161/57/57
f 163/59/56 171/65/61 170/64/21 162/58/21
f 164/34/79 172/1/7 171/2/61 163/33/56
f 165/35/60 173/6/64 172/1/7 164/34/79
f 166/61/24 174/64/24 173/65/64 165/60/60
f 167/62/59 175/63/63 174/64/24 166/61/24
f 160/28/78 168/1/3 175/6/63 167/39/59
f 169/2/62 177/11/67 176/50/80 168/1/3
f 170/64/21 178/61/21 177/62/67 169/63/62
f 171/65/61 179/60/66 178/61/21 170/64/21
f 172/1/7 180/16/81 179/15/66 171/2/61
f 173/6/64 181/17/70 180/16/81 172/1/7
f 174/64/24 182/58/24 181/59/70 173/65/64
f 175/63/63 183/57/69 182/58/24 174/64/24
f 168/1/3 176/50/80 183/21/69 175/6/63
f 177/11/67 185/44/73 184/43/74 176/50/80
f 178/61/21 186/55/21 185/56/73 177/62/67
f 179/60/66 187/54/72 186/55/21 178/61/21
f 180/16/81 188/46/82 187/45/72 179/15/66
f 181/17/70 189/47/76 188/46/82 180/16/81
f 182/58/24 190/52/24 189/53/76 181/59/70
f 183/57/69 191/51/75 190/52/24 182/58/24
f 176/50/80 184/43/74 191/48/75 183/21/69
f 185/29/73 98/2/45 97/1/1 184/49/74
f 186/55/21 99/4/21 98/3/45 185/56/73
f 187/54/72 100/5/46 99/4/21 186/55/21
f 188/34/82 101/1/5 100/2/46 187/33/72
f 189/35/76 102/6/47 101/1/5 188/34/82
f 190/52/24 103/8/24 102/7/47 189/53/76
f 191/51/75 104/9/48 103/8/24 190/52/24
f 184/49/74 97/1/1 104/6/48 191/39/75

