# ProBuilder 5.0.7
# https://unity3d.com/unity/features/worldbuilding/probuilder
# 31/01/2024 16:38:53

mtllib ./mshPlayerCollider.mtl
o mshPlayerCollider

g Cylinder (1)
v -0.5 0 0
v -0.5 2 0
v -0.4619398 0 0.1913417
v -0.4619398 2 0.1913417
v -0.3535534 0 0.3535534
v -0.3535534 2 0.3535534
v -0.1913417 0 0.4619398
v -0.1913417 2 0.4619398
v 2.185569E-08 0 0.5
v 2.185569E-08 2 0.5
v 0.1913417 0 0.4619398
v 0.1913417 2 0.4619398
v 0.3535534 0 0.3535534
v 0.3535534 2 0.3535534
v 0.4619398 0 0.1913417
v 0.4619398 2 0.1913417
v 0.5 0 -4.371139E-08
v 0.5 2 -4.371139E-08
v 0.4619398 0 -0.1913417
v 0.4619398 2 -0.1913417
v 0.3535534 0 -0.3535534
v 0.3535534 2 -0.3535534
v 0.1913418 0 -0.4619398
v 0.1913418 2 -0.4619398
v -5.96244E-09 0 -0.5
v -5.96244E-09 2 -0.5
v -0.1913418 0 -0.4619397
v -0.1913418 2 -0.4619397
v -0.3535533 0 -0.3535534
v -0.3535533 2 -0.3535534
v -0.4619398 0 -0.1913417
v -0.4619398 2 -0.1913417
v 0 0 0
v 0 2 0

vt -0.09754519 0
vt -0.09754519 2
vt 0.09754514 0
vt 0.09754514 2
vt -0.5 0
vt 0 0
vt -0.4619398 0.1913417
vt 0.5 0
vt 0.4619398 0.1913417
vt -0.3535534 0.3535534
vt 0.3535534 0.3535534
vt -0.1913417 0.4619398
vt 0.1913417 0.4619398
vt 2.185569E-08 0.5
vt 0.4619398 -0.1913417
vt -0.4619398 -0.1913417
vt 0.3535534 -0.3535534
vt -0.3535534 -0.3535534
vt 0.1913418 -0.4619398
vt -0.1913418 -0.4619398
vt -5.96244E-09 -0.5

vn -1 0 6.836892E-08
vn -0.9238795 0 0.3826835
vn -0.7071068 0 0.7071068
vn -0.3826835 0 0.9238795
vn -5.317582E-08 0 1
vn 0.3826835 0 0.9238795
vn 0.7071068 0 0.7071068
vn 0.9238795 0 0.3826835
vn 1 0 -6.077237E-08
vn 0.9238795 0 -0.3826835
vn 0.7071069 0 -0.7071066
vn 0.3826836 0 -0.9238795
vn -6.836892E-08 0 -1
vn -0.3826835 0 -0.9238795
vn -0.7071068 0 -0.7071068
vn -0.9238795 0 -0.3826835
vn 0 -1 0
vn 0 1 0

usemtl GridBox_Default
f 1/5/17 33/6/17 3/7/17
f 3/7/17 33/6/17 5/10/17
f 5/10/17 33/6/17 7/12/17
f 7/12/17 33/6/17 9/14/17
f 9/14/17 33/6/17 11/13/17
f 11/13/17 33/6/17 13/11/17
f 13/11/17 33/6/17 15/9/17
f 15/9/17 33/6/17 17/8/17
f 17/8/17 33/6/17 19/15/17
f 19/15/17 33/6/17 21/17/17
f 21/17/17 33/6/17 23/19/17
f 23/19/17 33/6/17 25/21/17
f 25/21/17 33/6/17 27/20/17
f 27/20/17 33/6/17 29/18/17
f 29/18/17 33/6/17 31/16/17
f 31/16/17 33/6/17 1/5/17
f 4/9/18 34/6/18 2/8/18
f 6/11/18 34/6/18 4/9/18
f 8/13/18 34/6/18 6/11/18
f 10/14/18 34/6/18 8/13/18
f 12/12/18 34/6/18 10/14/18
f 14/10/18 34/6/18 12/12/18
f 16/7/18 34/6/18 14/10/18
f 18/5/18 34/6/18 16/7/18
f 20/16/18 34/6/18 18/5/18
f 22/18/18 34/6/18 20/16/18
f 24/20/18 34/6/18 22/18/18
f 26/21/18 34/6/18 24/20/18
f 28/19/18 34/6/18 26/21/18
f 30/17/18 34/6/18 28/19/18
f 32/15/18 34/6/18 30/17/18
f 2/8/18 34/6/18 32/15/18
f 4/4/2 2/2/1 1/1/1
f 1/1/1 3/3/2 4/4/2
f 6/4/3 4/2/2 3/1/2
f 3/1/2 5/3/3 6/4/3
f 8/4/4 6/2/3 5/1/3
f 5/1/3 7/3/4 8/4/4
f 10/4/5 8/2/4 7/1/4
f 7/1/4 9/3/5 10/4/5
f 12/4/6 10/2/5 9/1/5
f 9/1/5 11/3/6 12/4/6
f 14/4/7 12/2/6 11/1/6
f 11/1/6 13/3/7 14/4/7
f 16/4/8 14/2/7 13/1/7
f 13/1/7 15/3/8 16/4/8
f 18/4/9 16/2/8 15/1/8
f 15/1/8 17/3/9 18/4/9
f 20/4/10 18/2/9 17/1/9
f 17/1/9 19/3/10 20/4/10
f 22/4/11 20/2/10 19/1/10
f 19/1/10 21/3/11 22/4/11
f 24/4/12 22/2/11 21/1/11
f 21/1/11 23/3/12 24/4/12
f 26/4/13 24/2/12 23/1/12
f 23/1/12 25/3/13 26/4/13
f 28/4/14 26/2/13 25/1/13
f 25/1/13 27/3/14 28/4/14
f 30/4/15 28/2/14 27/1/14
f 27/1/14 29/3/15 30/4/15
f 32/4/16 30/2/15 29/1/15
f 29/1/15 31/3/16 32/4/16
f 2/4/1 32/2/16 31/1/16
f 31/1/16 1/3/1 2/4/1

